Coordinates
version=1
nRows=14
nColumns=24
inDegrees=yes

Units are S.I. units (second, meters, Newtons, ...)
Angles are in degrees.

endheader
time	pelvis_tilt	pelvis_list	pelvis_rotation	pelvis_tx	pelvis_ty	pelvis_tz	hip_flexion_r	hip_adduction_r	hip_rotation_r	knee_angle_r	ankle_angle_r	subtalar_angle_r	mtp_angle_r	hip_flexion_l	hip_adduction_l	hip_rotation_l	knee_angle_l	ankle_angle_l	subtalar_angle_l	mtp_angle_l	lumbar_extension	lumbar_bending	lumbar_rotation
      0.01000000	     62.44881960	      3.70813104	     -1.82770782	      0.76860699	      1.02583772	     -0.28816965	      9.41969315	     -8.03810635	      7.90987740	     -2.89829164	     -7.12028235	    -13.85742569	    -13.09556415	      1.36067671	     -2.97421358	    -11.35192192	    -60.74813564	      4.65009573	     -7.67628926	    -45.01163826	      0.00000000	      0.00000000	      0.00000000
      0.02000000	     62.43467557	      3.71165372	     -1.82363684	      0.76861805	      1.02583238	     -0.28820532	      9.42978826	     -8.04194259	      7.86667409	     -2.87737836	     -7.13696819	    -13.83367820	    -13.11238203	      1.37174229	     -2.96630746	    -11.34756399	    -60.74377476	      4.65783553	     -7.68101779	    -45.01986322	      0.00000000	      0.00000000	      0.00000000
      0.03000000	     62.42417228	      3.71466688	     -1.81779792	      0.76862950	      1.02583313	     -0.28822637	      9.43876659	     -8.04684095	      7.85114814	     -2.86538498	     -7.14959855	    -13.81391103	    -13.12768569	      1.38102624	     -2.96139191	    -11.34433377	    -60.74508428	      4.65918410	     -7.68299911	    -45.02953958	      0.00000000	      0.00000000	      0.00000000
      0.04000000	     62.41692644	      3.71682322	     -1.81216974	      0.76863558	      1.02583511	     -0.28823956	      9.44708175	     -8.05215006	      7.85369310	     -2.85998743	     -7.15915935	    -13.79819490	    -13.14143049	      1.38903924	     -2.95857469	    -11.34173999	    -60.75001872	      4.65580178	     -7.68311399	    -45.04191114	      0.00000000	      0.00000000	      0.00000000
      0.05000000	     62.41229343	      3.71807578	     -1.80818709	      0.76863361	      1.02583507	     -0.28825138	      9.45473494	     -8.05689997	      7.86427664	     -2.85866991	     -7.16674247	    -13.78661933	    -13.15350694	      1.39617925	     -2.95692564	    -11.33931492	    -60.75637159	      4.64948693	     -7.68225308	    -45.05845903	      0.00000000	      0.00000000	      0.00000000
      0.06000000	     62.40935708	      3.71871355	     -1.80591793	      0.76862717	      1.02583177	     -0.28826448	      9.46113909	     -8.06018072	      7.87527318	     -2.85921855	     -7.17338177	    -13.77903867	    -13.16385342	      1.40256515	     -2.95572898	    -11.33678670	    -60.76237782	      4.64175780	     -7.68107028	    -45.08056558	      0.00000000	      0.00000000	      0.00000000
      0.07000000	     62.40707156	      3.71921844	     -1.80431227	      0.76862231	      1.02582391	     -0.28827768	      9.46538841	     -8.06158829	      7.88247883	     -2.85985833	     -7.18002986	    -13.77482188	    -13.17259607	      1.40803634	     -2.95465947	    -11.33408463	    -60.76696440	      4.63374025	     -7.67994393	    -45.10928326	      0.00000000	      0.00000000	      0.00000000
      0.08000000	     62.40479886	      3.71975488	     -1.80212565	      0.76862350	      1.02581652	     -0.28828738	      9.46698198	     -8.06172007	      7.88477996	     -2.85919173	     -7.18753534	    -13.77282111	    -13.18011619	      1.41221383	     -2.95378433	    -11.33123123	    -60.76973796	      4.62623623	     -7.67906722	    -45.14518945	      0.00000000	      0.00000000	      0.00000000
      0.09000000	     62.40266378	      3.71997036	     -1.79877384	      0.76863101	      1.02581909	     -0.28829292	      9.46615288	     -8.06195765	      7.88312588	     -2.85630508	     -7.19652447	    -13.77164213	    -13.18699673	      1.41466060	     -2.95331995	    -11.32829086	    -60.77080017	      4.61983873	     -7.67857901	    -45.18830759	      0.00000000	      0.00000000	      0.00000000
      0.10000000	     62.40125985	      3.71955581	     -1.79466079	      0.76863983	      1.02583067	     -0.28829886	      9.46331802	     -8.06339165	      7.87931879	     -2.85111497	     -7.20720580	    -13.77009786	    -13.19386386	      1.41518963	     -2.95336346	    -11.32543169	    -60.77047112	      4.61500562	     -7.67868170	    -45.23808308	      0.00000000	      0.00000000	      0.00000000
      0.11000000	     62.40111517	      3.71867168	     -1.79085036	      0.76864378	      1.02584031	     -0.28830775	      9.45861537	     -8.06610415	      7.87501304	     -2.84446145	     -7.21922866	    -13.76758445	    -13.20119036	      1.41396499	     -2.95379824	    -11.32298764	    -60.76912452	      4.61203910	     -7.67969052	    -45.29340853	      0.00000000	      0.00000000	      0.00000000
      0.12000000	     62.40245577	      3.71772591	     -1.78835115	      0.76864211	      1.02584362	     -0.28831492	      9.45220882	     -8.06941389	      7.87118584	     -2.83768805	     -7.23171873	    -13.76416514	    -13.20913835	      1.41126002	     -2.95438544	    -11.32141025	    -60.76718983	      4.61100662	     -7.68198659	    -45.35269594	      0.00000000	      0.00000000	      0.00000000
      0.13000000	     62.40521528	      3.71706657	     -1.78759887	      0.76864027	      1.02584541	     -0.28831612	      9.44470044	     -8.07241616	      7.86807879	     -2.83207064	     -7.24349175	    -13.76034047	    -13.21748699	      1.40728422	     -2.95493062	    -11.32112850	    -60.76512087	      4.61170593	     -7.68589981	    -45.41399134	      0.00000000	      0.00000000	      0.00000000
      0.14000000	     62.40905803	      3.71679945	     -1.78846211	      0.76864242	      1.02584863	     -0.28831439	      9.43706259	     -8.07442798	      7.86541661	     -2.82845791	     -7.25335312	    -13.75666442	    -13.22564535	      1.40231204	     -2.95539889	    -11.32238065	    -60.76325120	      4.61372072	     -7.69156264	    -45.47512158	      0.00000000	      0.00000000	      0.00000000
